<svg xmlns="http://www.w3.org/2000/svg" width="18" height="18" fill="none"><path fill="#000" d="M8.938 4.813a4.125 4.125 0 1 0 0 8.25 4.125 4.125 0 0 0 0-8.25Zm0 6.875a2.75 2.75 0 1 1 0-5.5 2.75 2.75 0 0 1 0 5.5ZM13.061 0h-8.25A4.818 4.818 0 0 0 0 4.813v8.25a4.818 4.818 0 0 0 4.813 4.812h8.25a4.817 4.817 0 0 0 4.812-4.813v-8.25A4.818 4.818 0 0 0 13.062 0ZM16.5 13.063a3.438 3.438 0 0 1-3.438 3.437h-8.25a3.438 3.438 0 0 1-3.437-3.438v-8.25a3.437 3.437 0 0 1 3.438-3.437h8.25A3.438 3.438 0 0 1 16.5 4.813v8.25Zm-2.063-8.594a1.031 1.031 0 1 1-2.062 0 1.031 1.031 0 0 1 2.063 0Z"/></svg>