<svg xmlns="http://www.w3.org/2000/svg" width="17" height="17" fill="none"><path fill="#000" d="M6.447 11.275H4.98V6.509h1.467v4.766Zm-.733-5.377c-.53 0-.794-.245-.794-.733a.678.678 0 0 1 .229-.52.796.796 0 0 1 .565-.214c.528 0 .793.246.793.734 0 .489-.264.733-.793.733Zm6.172 5.377H10.39V8.617c0-.692-.246-1.039-.735-1.039-.387 0-.64.193-.764.58-.04.062-.06.185-.06.367v2.75H7.332V8.036c0-.733-.01-1.242-.03-1.527h1.283l.092.641c.336-.51.825-.764 1.497-.764.51 0 .922.178 1.237.535.318.356.475.87.475 1.543v2.811ZM8.25 16.5C3.7 16.5 0 12.8 0 8.25S3.7 0 8.25 0s8.25 3.7 8.25 8.25-3.7 8.25-8.25 8.25Zm0-14.667A6.425 6.425 0 0 0 1.833 8.25a6.425 6.425 0 0 0 6.417 6.417 6.425 6.425 0 0 0 6.417-6.417A6.425 6.425 0 0 0 8.25 1.833Z"/></svg>